<?xml version="1.0" encoding="UTF-8"?>
<svg version="1.1" xmlns="http://www.w3.org/2000/svg" width="512" height="512">
<path d="M0 0 C1.12795361 -0.00935994 1.12795361 -0.00935994 2.27869415 -0.01890898 C4.80004674 -0.03487215 7.32043701 -0.02222232 9.84179688 -0.00964355 C11.64868738 -0.01506322 13.45557347 -0.022185 15.26245117 -0.03088379 C20.17152718 -0.04913865 25.0802674 -0.04204069 29.98934937 -0.02936745 C35.12311722 -0.01925099 40.25685604 -0.02862936 45.390625 -0.03491211 C54.01242238 -0.04219246 62.63408278 -0.03259062 71.25585938 -0.0135498 C81.22843656 0.00821965 91.20068666 0.00116856 101.17325592 -0.02085543 C109.73046929 -0.03899836 118.2875841 -0.04157316 126.84481049 -0.03110075 C131.95787417 -0.02485974 137.07078404 -0.02404689 142.18383789 -0.0372467 C146.99052263 -0.04878848 151.79678503 -0.04081012 156.60342407 -0.01766968 C158.36910297 -0.01237363 160.13481731 -0.01391164 161.90048218 -0.02272034 C164.30783501 -0.03362444 166.71382798 -0.01997589 169.12109375 0 C170.17342571 -0.01338433 170.17342571 -0.01338433 171.24701691 -0.02703905 C174.58079366 0.02675476 176.30649872 0.31580512 178.99713135 2.3506546 C181.15811002 5.33248248 181.01763586 7.3680402 180.95117188 11.02355957 C180.93183594 12.89914551 180.93183594 12.89914551 180.91210938 14.81262207 C180.86183594 16.76555176 180.86183594 16.76555176 180.81054688 18.75793457 C180.7925 20.07535645 180.77445312 21.39277832 180.75585938 22.75012207 C180.70870958 26.00345765 180.64290731 29.25533082 180.56054688 32.50793457 C181.11346279 32.5042474 181.66637871 32.50056023 182.23604965 32.49676132 C195.68985823 32.40842306 209.14361599 32.34248665 222.59765244 32.30068588 C229.10394837 32.27979292 235.6100353 32.25144349 242.11621094 32.20617676 C248.39262197 32.16278087 254.66883171 32.13881035 260.94538116 32.1284256 C263.34244202 32.12102304 265.7394916 32.10656798 268.13646698 32.08501434 C271.48868293 32.05606441 274.84006239 32.05197516 278.19238281 32.05383301 C279.18788147 32.0394519 280.18338013 32.0250708 281.20904541 32.01025391 C287.849 32.05019018 287.849 32.05019018 291.1762085 34.19061279 C292.86598217 37.01921986 293.06737777 38.75026086 293.078125 42.03918457 C293.09073364 43.14713379 293.10334229 44.25508301 293.11633301 45.39660645 C293.10418762 47.18421387 293.10418762 47.18421387 293.09179688 49.00793457 C293.09562378 50.2357666 293.09945068 51.46359863 293.10339355 52.7286377 C293.10611529 55.32434916 293.09873599 57.92008793 293.08203125 60.51574707 C293.06062762 64.49293056 293.0818265 68.46830739 293.10742188 72.44543457 C293.10477865 74.9662719 293.09965378 77.4871081 293.09179688 80.00793457 C293.0998938 81.19967285 293.10799072 82.39141113 293.11633301 83.6192627 C293.09742004 85.28118652 293.09742004 85.28118652 293.078125 86.97668457 C293.07494263 87.95057129 293.07176025 88.92445801 293.06848145 89.92785645 C292.41814738 93.23125966 291.14476688 94.42008209 288.56054688 96.50793457 C286.47680664 97.15808105 286.47680664 97.15808105 284.25195312 97.37902832 C283.42896729 97.47522461 282.60598145 97.5714209 281.75805664 97.67053223 C280.88850342 97.76125 280.0189502 97.85196777 279.12304688 97.94543457 C261.4792608 100.23625927 247.06750577 107.23662621 235.49023438 120.97668457 C219.91485827 141.40754229 221.23282217 164.98272246 220.93554688 189.50793457 C220.89728707 192.13294639 220.85823095 194.75794673 220.81835938 197.38293457 C220.72324157 203.7578313 220.63795152 210.13279943 220.56054688 216.50793457 C221.14545898 216.4869873 221.73037109 216.46604004 222.33300781 216.44445801 C224.99201153 216.36113342 227.65074043 216.3092256 230.31054688 216.25793457 C231.2309375 216.22441895 232.15132813 216.19090332 233.09960938 216.15637207 C239.75660294 216.0598939 239.75660294 216.0598939 243.16796875 217.96105957 C245.25424412 221.77663191 245.13302691 225.22165198 245.09179688 229.50793457 C245.09562378 230.38062988 245.09945068 231.2533252 245.10339355 232.15246582 C245.10611178 233.99492549 245.09875682 235.83742381 245.08203125 237.67980957 C245.06061935 240.49839391 245.08183489 243.31442942 245.10742188 246.13293457 C245.10477858 247.92460686 245.09965357 249.71627756 245.09179688 251.50793457 C245.0998938 252.34969238 245.10799072 253.1914502 245.11633301 254.05871582 C245.09742004 255.2401416 245.09742004 255.2401416 245.078125 256.44543457 C245.07494263 257.13508301 245.07176025 257.82473145 245.06848145 258.53527832 C244.25938391 261.6775557 243.22959067 262.59371295 240.56054688 264.50793457 C236.87418652 265.12795326 233.20691473 265.04682994 229.4765625 265.01586914 C228.3325724 265.0221091 227.18858231 265.02834907 226.00992584 265.03477812 C222.83403672 265.04798641 219.65875751 265.04321429 216.48288345 265.03083324 C213.05813574 265.02179517 209.63347145 265.03574625 206.20874023 265.04675293 C199.49952886 265.06455614 192.79049629 265.06069023 186.08127785 265.04910237 C180.62944697 265.04007537 175.17766628 265.03884085 169.72583008 265.04319763 C168.56272363 265.04411703 168.56272363 265.04411703 167.37612009 265.045055 C165.80098914 265.04633388 164.2258582 265.04763073 162.65072727 265.04894537 C147.87449707 265.06035644 133.09836607 265.04722922 118.32215214 265.0257439 C105.63854653 265.00787242 92.95508734 265.01097638 80.27148438 265.02941895 C65.5487807 265.05081638 50.82616401 265.05925775 36.10344696 265.04696989 C34.53405254 265.04569567 32.96465811 265.04443819 31.39526367 265.04319763 C30.6230556 265.04258053 29.85084752 265.04196343 29.0552392 265.04132763 C23.60882641 265.03787133 18.16246871 265.04370906 12.71606445 265.05311584 C6.08029197 265.06432472 -0.5552912 265.06131938 -7.19104195 265.03999287 C-10.57791693 265.02946726 -13.9644761 265.02538586 -17.35134888 265.03858948 C-21.01970737 265.04946386 -24.68716801 265.03587811 -28.35546875 265.01586914 C-29.43055443 265.02479203 -30.50564011 265.03371491 -31.61330414 265.04290819 C-38.8000938 264.96647911 -38.8000938 264.96647911 -42.10045624 262.59947968 C-43.56211533 260.31633328 -43.94462572 259.13382186 -43.95703125 256.44543457 C-43.96963989 255.65781738 -43.98224854 254.8702002 -43.99523926 254.05871582 C-43.98714233 253.21695801 -43.97904541 252.3752002 -43.97070312 251.50793457 C-43.97453003 250.63523926 -43.97835693 249.76254395 -43.9822998 248.86340332 C-43.98501803 247.02094365 -43.97766307 245.17844533 -43.9609375 243.33605957 C-43.9395256 240.51747523 -43.96074114 237.70143972 -43.98632812 234.88293457 C-43.98368483 233.09126228 -43.97855982 231.29959158 -43.97070312 229.50793457 C-43.97880005 228.66617676 -43.98689697 227.82441895 -43.99523926 226.95715332 C-43.9337941 223.11889241 -43.87852412 221.12497411 -41.60717773 217.9329834 C-38.4447033 215.85399215 -36.19645865 216.7108457 -32.50195312 217.19543457 C-29.46157701 217.26162617 -27.15166141 216.92364399 -24.43945312 215.50793457 C-19.33271786 209.89803777 -16.3547919 202.52075978 -13.08056641 195.75598145 C-9.95810015 189.57608097 -6.22350755 183.74829545 -2.57568359 177.86853027 C1.76175905 170.68102125 4.36761522 164.27969629 3.18554688 155.75402832 C2.2683904 152.45799722 0.59289149 149.90456512 -1.38085938 147.13684082 C-2.43945312 145.50793457 -2.43945312 145.50793457 -2.43945312 143.50793457 C-10.35821306 139.3901794 -17.08464645 137.42170086 -26.00976562 137.33215332 C-27.23566406 137.30830566 -28.4615625 137.28445801 -29.72460938 137.2598877 C-32.29214619 137.21679069 -34.85990972 137.18561058 -37.42773438 137.1661377 C-39.26271484 137.12456543 -39.26271484 137.12456543 -41.13476562 137.08215332 C-42.80563232 137.06027954 -42.80563232 137.06027954 -44.51025391 137.03796387 C-48.07500501 136.39293347 -49.27424584 135.36666961 -51.43945312 132.50793457 C-51.83007812 129.49230957 -51.83007812 129.49230957 -51.68945312 126.25793457 C-51.65335937 125.18027832 -51.61726563 124.10262207 -51.58007812 122.99230957 C-51.53367187 122.17246582 -51.48726563 121.35262207 -51.43945312 120.50793457 C-52.13167969 120.55434082 -52.82390625 120.60074707 -53.53710938 120.64855957 C-70.78197354 121.28473374 -87.19712999 114.70919596 -99.87695312 103.13293457 C-114.42969394 89.17559836 -123.43647718 72.42895308 -123.87695312 52.00793457 C-123.89943115 51.32481201 -123.92190918 50.64168945 -123.94506836 49.93786621 C-123.92979017 46.79095016 -123.71290113 44.87904923 -121.82696533 42.31951904 C-118.64797939 39.90738412 -116.71086264 40.02444265 -112.74316406 40.05383301 C-112.07933716 40.0532489 -111.41551025 40.05266479 -110.73156738 40.05206299 C-108.54511574 40.05484192 -106.3600405 40.08592129 -104.17382812 40.11730957 C-102.65497584 40.12477273 -101.1361139 40.13046531 -99.61724854 40.13446045 C-95.62541987 40.14971116 -91.63417615 40.18898734 -87.64257812 40.23327637 C-83.56713778 40.27424168 -79.49160264 40.29247411 -75.41601562 40.31262207 C-67.42356011 40.35548282 -59.43157944 40.42372653 -51.43945312 40.50793457 C-51.33632812 39.55918457 -51.23320313 38.61043457 -51.12695312 37.63293457 C-50.43945312 34.50793457 -50.43945312 34.50793457 -47.43945312 32.50793457 C-44.68158898 32.33615682 -42.02729788 32.27577219 -39.27148438 32.31262207 C-38.07926521 32.31686691 -38.07926521 32.31686691 -36.86296082 32.32119751 C-34.32580474 32.33238752 -31.7890024 32.35748966 -29.25195312 32.38293457 C-27.5312551 32.39296591 -25.81055154 32.40209149 -24.08984375 32.41027832 C-19.8729107 32.43232297 -15.65624188 32.46684451 -11.43945312 32.50793457 C-11.47087402 31.26705078 -11.47087402 31.26705078 -11.50292969 30.00109863 C-11.58606932 26.25350087 -11.63810843 22.50609708 -11.68945312 18.75793457 C-11.72296875 17.45598145 -11.75648438 16.15402832 -11.79101562 14.81262207 C-11.81035156 12.93703613 -11.81035156 12.93703613 -11.83007812 11.02355957 C-11.86149902 9.29541016 -11.86149902 9.29541016 -11.89355469 7.53234863 C-10.85509986 0.61601615 -6.14957536 -0.07821481 0 0 Z " fill="#000000" transform="translate(171.439453125,231.4920654296875)"/>
<path d="M0 0 C102.96 0 205.92 0 312 0 C312 10.56 312 21.12 312 32 C285.6 32 259.2 32 232 32 C232 37.28 232 42.56 232 48 C244.87 48 257.74 48 271 48 C267.70783272 51.95060073 264.59215038 55.40784962 261 59 C233.05019286 87.10952033 240.5190616 133.22287313 240 168 C170.7 168 101.4 168 30 168 C36.69084035 155.73345936 36.69084035 155.73345936 39.98046875 150.1171875 C40.67685054 148.91821158 41.37280179 147.7189855 42.06835938 146.51953125 C43.13066294 144.68980366 44.19533674 142.86166532 45.26733398 141.03759766 C52.90109944 128.03192317 57.28658983 117.47682713 54.4609375 102.05859375 C52.96624035 96.67932654 50.87917206 93.0385511 48 88 C58.56 88 69.12 88 80 88 C80 82.72 80 77.44 80 72 C53.6 72 27.2 72 0 72 C0 48.24 0 24.48 0 0 Z " fill="#B1B0B3" transform="translate(136,280)"/>
<path d="M0 0 C0.69013687 -0.01182816 1.38027374 -0.02365631 2.09132385 -0.0358429 C4.36353713 -0.06862946 6.63454847 -0.07168702 8.90698242 -0.0715332 C10.49493391 -0.08185536 12.08288073 -0.09291935 13.67082214 -0.10469055 C16.99714427 -0.12410545 20.32304613 -0.12755093 23.64941406 -0.12109375 C27.89684257 -0.11510502 32.14207984 -0.15928779 36.38905811 -0.21698284 C39.6689921 -0.25409356 42.94840374 -0.25887653 46.22852135 -0.25470924 C47.79335254 -0.25756908 49.35820682 -0.27154772 50.92283058 -0.2971859 C64.65016274 -0.49845649 64.65016274 -0.49845649 69.72216797 3.80419922 C70.83409767 5.0260427 71.9151394 6.27737587 72.94995117 7.56518555 C73.76689453 8.36657959 74.58383789 9.16797363 75.42553711 9.99365234 C77.52289467 13.5316836 77.45191574 16.72009402 77.34057617 20.7097168 C77.33491638 21.47950363 77.32925659 22.24929047 77.32342529 23.04240417 C77.30112989 25.48814498 77.25094992 27.93239165 77.19995117 30.37768555 C77.17987717 32.04107576 77.16162797 33.70448907 77.14526367 35.36791992 C77.10128801 39.43424612 77.03231096 43.49946299 76.94995117 47.56518555 C77.59186401 47.53426315 78.23377686 47.50334076 78.8951416 47.47148132 C99.57887755 46.47649606 120.26386288 45.50992312 140.94995117 44.56518555 C141.73910667 44.52909683 142.52826218 44.49300812 143.34133148 44.45582581 C153.65501716 43.98449836 163.96912631 43.52435125 174.28393555 43.07827759 C177.30117937 42.94754208 180.31824706 42.81353013 183.33520508 42.67636108 C198.49782989 41.98942544 213.66634428 41.41309763 228.84494209 41.25871849 C230.26978591 41.24194372 231.69457059 41.21858531 233.11918449 41.18798256 C244.84593767 40.94989877 252.58873649 42.71757683 261.22729492 50.7722168 C267.98600799 57.80679571 269.36385924 65.11263939 269.31347656 74.52026367 C269.05771045 84.42352772 264.97071421 90.81974655 257.94995117 97.56518555 C252.46162824 101.82143599 247.24114032 103.80979815 240.29199219 103.84619141 C239.13940414 103.8525209 237.9868161 103.8588504 236.79930115 103.8653717 C235.50967972 103.85783371 234.22005829 103.85029572 232.89135742 103.8425293 C231.86005801 103.83965062 231.86005801 103.83965062 230.80792427 103.83671379 C206.53698826 103.74652304 182.27525483 102.45437275 158.03188193 101.39481866 C151.85230471 101.12510615 145.67239197 100.86363145 139.49242306 100.60307407 C132.86226852 100.32353503 126.23227588 100.04021589 119.60229492 99.7565918 C118.36617903 99.70389193 117.13006313 99.65119205 115.85648918 99.59689522 C102.87874815 99.04107028 89.90939915 98.45947534 76.94995117 97.56518555 C77.00789856 99.24584106 77.00789856 99.24584106 77.0670166 100.96044922 C77.18719022 104.66707212 77.27016436 108.37151302 77.33447266 112.0793457 C77.36949331 113.72257293 77.41712818 115.36558489 77.47802734 117.00805664 C78.034608 132.41458335 78.034608 132.41458335 73.73510742 137.44018555 C71.95410156 139.05737305 71.95410156 139.05737305 69.94995117 140.56518555 C69.22902283 141.24462723 68.50809448 141.92406891 67.76531982 142.62409973 C64.23860201 145.05563278 62.1590315 145.08849 57.89990234 145.13037109 C56.86469704 145.14811333 56.86469704 145.14811333 55.80857849 145.16621399 C53.53636521 145.19900056 51.26535387 145.20205811 48.99291992 145.2019043 C47.40496843 145.21222645 45.81702161 145.22329044 44.2290802 145.23506165 C40.90275808 145.25447655 37.57685622 145.25792202 34.25048828 145.25146484 C30.00305977 145.24547612 25.75782251 145.28965889 21.51084423 145.34735394 C18.23091025 145.38446465 14.9514986 145.38924762 11.671381 145.38508034 C10.10654981 145.38794018 8.54169552 145.40191881 6.97707176 145.42755699 C-6.7502604 145.62882758 -6.7502604 145.62882758 -11.82226562 141.32617188 C-12.93392625 140.10408356 -14.01494336 138.85275917 -15.05004883 137.56518555 C-16.27546387 136.36986206 -16.27546387 136.36986206 -17.52563477 135.15039062 C-19.64977549 131.54812828 -19.55064423 128.25898076 -19.44067383 124.2019043 C-19.43501404 123.40992142 -19.42935425 122.61793854 -19.42352295 121.80195618 C-19.40122191 119.28490461 -19.35104022 116.76930312 -19.30004883 114.25268555 C-19.27997558 112.54111764 -19.26172625 110.8295273 -19.24536133 109.11791992 C-19.20137808 104.9331207 -19.13239652 100.74939855 -19.05004883 96.56518555 C-20.0806543 96.58258789 -21.11125977 96.59999023 -22.1730957 96.61791992 C-23.53832599 96.63199446 -24.9035607 96.64564394 -26.26879883 96.65893555 C-27.28538574 96.67778809 -27.28538574 96.67778809 -28.32250977 96.69702148 C-35.16354027 96.74695601 -39.11874523 95.36218639 -44.01098633 90.6940918 C-50.40021474 83.79633296 -51.53043467 78.36155402 -51.35473633 69.01049805 C-50.6594468 61.148378 -47.00250864 57.01559851 -41.14770508 52.01049805 C-36.32262595 48.68595563 -31.97877372 48.29734167 -26.23754883 48.44018555 C-25.19824219 48.4537207 -25.19824219 48.4537207 -24.13793945 48.4675293 C-22.44182488 48.49092398 -20.74589012 48.52678914 -19.05004883 48.56518555 C-19.08670654 47.5165332 -19.12336426 46.46788086 -19.16113281 45.38745117 C-19.28860799 41.46665895 -19.36846893 37.54604644 -19.43457031 33.6237793 C-19.46959926 31.93205892 -19.51724027 30.24054781 -19.578125 28.54956055 C-20.13471022 12.68454308 -20.13471022 12.68454308 -15.83520508 7.65893555 C-14.05419922 6.05541992 -14.05419922 6.05541992 -12.05004883 4.56518555 C-11.32912048 3.88610641 -10.60819214 3.20702728 -9.86541748 2.50737 C-6.33865699 0.07443129 -4.25989697 0.04188864 0 0 Z " fill="#000000" transform="translate(227.050048828125,71.434814453125)"/>
<path d="M0 0 C1.15129395 -0.00945648 2.30258789 -0.01891296 3.48876953 -0.02865601 C5.3544458 -0.01954697 5.3544458 -0.01954697 7.2578125 -0.01025391 C9.17182861 -0.01455917 9.17182861 -0.01455917 11.12451172 -0.01895142 C13.82485366 -0.02099475 16.52438331 -0.01695032 19.22460938 -0.00292969 C22.6850048 0.0141627 26.14470221 0.00432052 29.60507202 -0.01364708 C32.90601056 -0.02709657 36.20686486 -0.01767885 39.5078125 -0.01025391 C40.75159668 -0.0163266 41.99538086 -0.02239929 43.27685547 -0.02865601 C45.00379639 -0.01447128 45.00379639 -0.01447128 46.765625 0 C47.78027832 0.00238678 48.79493164 0.00477356 49.84033203 0.00723267 C52.85356517 0.45871852 53.53788119 1.02409037 55.3828125 3.38818359 C55.76033592 5.40438843 55.76033592 5.40438843 55.76376343 7.75292969 C55.7722229 8.64461853 55.78068237 9.53630737 55.78939819 10.45501709 C55.7833255 11.43069641 55.77725281 12.40637573 55.77099609 13.41162109 C55.77625305 14.44111877 55.78151001 15.47061646 55.78692627 16.53131104 C55.8001547 19.94208852 55.7913779 23.35240117 55.78125 26.76318359 C55.78326991 29.12825612 55.78618065 31.49332805 55.78994751 33.85839844 C55.79437473 38.81825686 55.78792687 43.77795335 55.77392578 48.73779297 C55.75683386 55.10371795 55.7666729 61.46926351 55.78464317 67.83517456 C55.79547017 72.71983716 55.79203962 77.60440942 55.7842598 82.48907471 C55.78225479 84.83669072 55.78472753 87.18431487 55.79169846 89.53192139 C55.79929493 92.80975148 55.78773355 96.08696227 55.77099609 99.36474609 C55.77706879 100.34042542 55.78314148 101.31610474 55.78939819 102.3213501 C55.78093872 103.21303894 55.77247925 104.10472778 55.76376343 105.0234375 C55.76263235 105.79845612 55.76150127 106.57347473 55.76033592 107.37197876 C55.28091093 109.93239997 54.43077581 110.82128541 52.3828125 112.38818359 C49.84033203 112.76913452 49.84033203 112.76913452 46.765625 112.77636719 C45.61433105 112.78582367 44.46303711 112.79528015 43.27685547 112.80502319 C42.03307129 112.7989505 40.78928711 112.79287781 39.5078125 112.78662109 C38.23180176 112.78949127 36.95579102 112.79236145 35.64111328 112.7953186 C32.94077134 112.79736194 30.24124169 112.79331751 27.54101562 112.77929688 C24.0806202 112.76220448 20.62092279 112.77204667 17.16055298 112.79001427 C13.85961444 112.80346375 10.55876014 112.79404604 7.2578125 112.78662109 C6.01402832 112.79269379 4.77024414 112.79876648 3.48876953 112.80502319 C2.33747559 112.79556671 1.18618164 112.78611023 0 112.77636719 C-1.01465332 112.77398041 -2.02930664 112.77159363 -3.07470703 112.76913452 C-6.08794017 112.31764867 -6.77225619 111.75227682 -8.6171875 109.38818359 C-8.99471092 107.37197876 -8.99471092 107.37197876 -8.99813843 105.0234375 C-9.0065979 104.13174866 -9.01505737 103.24005981 -9.02377319 102.3213501 C-9.0177005 101.34567078 -9.01162781 100.36999146 -9.00537109 99.36474609 C-9.01062805 98.33524841 -9.01588501 97.30575073 -9.02130127 96.24505615 C-9.0345297 92.83427867 -9.0257529 89.42396602 -9.015625 86.01318359 C-9.01764491 83.64811106 -9.02055565 81.28303914 -9.02432251 78.91796875 C-9.02874973 73.95811033 -9.02230187 68.99841384 -9.00830078 64.03857422 C-8.99120886 57.67264924 -9.0010479 51.30710368 -9.01901817 44.94119263 C-9.02984517 40.05653003 -9.02641462 35.17195776 -9.0186348 30.28729248 C-9.01662979 27.93967647 -9.01910253 25.59205232 -9.02607346 23.2444458 C-9.03366993 19.96661571 -9.02210855 16.68940492 -9.00537109 13.41162109 C-9.01144379 12.43594177 -9.01751648 11.46026245 -9.02377319 10.45501709 C-9.01531372 9.56332825 -9.00685425 8.6716394 -8.99813843 7.75292969 C-8.99700735 6.97791107 -8.99587627 6.20289246 -8.99471092 5.40438843 C-8.04442201 0.32926727 -4.54958155 0.01070203 0 0 Z " fill="#676768" transform="translate(232.6171875,87.61181640625)"/>
<path d="M0 0 C2.71138094 -0.10832926 5.42183989 -0.1825857 8.13452148 -0.24945068 C9.33386322 -0.30772285 9.33386322 -0.30772285 10.55743408 -0.36717224 C16.55346771 -0.46066375 20.60050797 1.26895365 25.21264648 5.11383057 C27.90097927 8.89429855 28.82927466 12.34694874 28.62280273 17.02398682 C27.84931125 20.96511009 26.05798576 24.29350526 23.21264648 27.11383057 C17.82900501 29.90230648 13.715403 30.52762709 7.70947266 30.3538208 C6.88839869 30.34165496 6.06732473 30.32948912 5.22136974 30.31695461 C2.55087774 30.26961845 -0.11770303 30.19554055 -2.78735352 30.11383057 C-4.11922007 30.07525877 -4.11922007 30.07525877 -5.47799301 30.03590775 C-12.2329753 29.83127232 -18.98448451 29.55677932 -25.73657227 29.27398682 C-27.89067952 29.18641561 -30.04479866 29.09913632 -32.19892883 29.01213074 C-36.67910673 28.83038271 -41.15917058 28.64610918 -45.63916016 28.45977783 C-51.33718428 28.22285269 -57.03539517 27.9908502 -62.73369122 27.76056767 C-67.17023108 27.5809796 -71.60669267 27.39951664 -76.04313087 27.21743584 C-78.14274301 27.13133995 -80.24237108 27.04563147 -82.34201622 26.96034431 C-93.0731492 26.52286803 -103.7916911 26.02507306 -114.50886536 25.32234192 C-118.31085817 25.08053575 -122.10466894 24.91641446 -125.91235352 24.79742432 C-127.8652832 24.73458252 -127.8652832 24.73458252 -129.85766602 24.67047119 C-131.15446289 24.63115479 -132.45125977 24.59183838 -133.78735352 24.55133057 C-135.15975646 24.50793507 -136.53215235 24.46431591 -137.90454102 24.42047119 C-141.19874348 24.31607745 -144.49303921 24.21463315 -147.78735352 24.11383057 C-147.78735352 18.17383057 -147.78735352 12.23383057 -147.78735352 6.11383057 C-145.07295044 6.03056519 -145.07295044 6.03056519 -142.30371094 5.94561768 C-125.2210669 5.40727502 -108.15307326 4.70343599 -91.08190918 3.87008667 C-84.15202335 3.53289709 -77.22168257 3.20540017 -70.29125977 2.87945557 C-69.59518993 2.84670343 -68.8991201 2.8139513 -68.18195724 2.78020668 C-55.04399419 2.16320218 -41.90466966 1.58396109 -28.76278687 1.05618286 C-26.65353781 0.97126688 -24.54434265 0.88499867 -22.43521118 0.79721069 C-16.78319993 0.56304192 -11.13164836 0.35703262 -5.47705078 0.19641113 C-3.65105409 0.14034838 -1.82533565 0.07454347 0 0 Z " fill="#AC762B" transform="translate(451.787353515625,128.88616943359375)"/>
<path d="M0 0 C84.48 0 168.96 0 256 0 C256 5.28 256 10.56 256 16 C171.52 16 87.04 16 0 16 C0 10.72 0 5.44 0 0 Z " fill="#808080" transform="translate(144,464)"/>
<path d="M0 0 C52.8 0 105.6 0 160 0 C160 5.28 160 10.56 160 16 C107.2 16 54.4 16 0 16 C0 10.72 0 5.44 0 0 Z " fill="#F8BC1E" transform="translate(176,248)"/>
<path d="M0 0 C3.80560234 0.58066603 6.526577 1.66421734 9.82421875 3.6328125 C10.75669434 4.18380615 11.68916992 4.7347998 12.64990234 5.30249023 C13.65230957 5.90391846 14.6547168 6.50534668 15.6875 7.125 C17.86025981 8.41086159 20.03345157 9.69599352 22.20703125 10.98046875 C23.89046631 11.97892822 23.89046631 11.97892822 25.60791016 12.99755859 C31.00694148 16.18475126 36.4405284 19.31124675 41.875 22.4375 C44.05994368 23.69653156 46.24483925 24.95564661 48.4296875 26.21484375 C49.51475586 26.83987793 50.59982422 27.46491211 51.71777344 28.10888672 C58.21847963 31.85438435 64.71625032 35.60497265 71.21435547 39.35498047 C76.23653702 42.25294889 81.25927066 45.14994287 86.28442383 48.04275513 C88.05045522 49.05947198 89.81627431 50.07655658 91.58203125 51.09375 C93.78734155 52.36400873 95.99304216 53.63359018 98.19921875 54.90234375 C104.50633895 58.53640788 110.77255337 62.23098259 117 66 C116.28398639 70.05542977 115.13351931 72.80821387 112.9375 76.3125 C112.11572266 77.63701172 112.11572266 77.63701172 111.27734375 78.98828125 C110.85582031 79.65214844 110.43429688 80.31601563 110 81 C106.02489967 80.41086447 103.19302975 79.17954805 99.73828125 77.1484375 C98.20397461 76.25415039 98.20397461 76.25415039 96.63867188 75.34179688 C95.54103516 74.69275391 94.44339844 74.04371094 93.3125 73.375 C92.15083078 72.69521082 90.98871307 72.01618752 89.82617188 71.33789062 C87.41182554 69.92841697 84.99944078 68.51567013 82.58837891 67.10058594 C77.07681375 63.86944454 71.53697891 60.68731817 66 57.5 C63.8358155 56.25151354 61.67175341 55.00281486 59.5078125 53.75390625 C55.14934612 51.23930564 50.78987809 48.72645339 46.4296875 46.21484375 C35.60635833 39.97872075 24.79178649 33.72808398 14 27.4375 C13.0394873 26.87796631 12.07897461 26.31843262 11.08935547 25.74194336 C9.27592956 24.68344726 7.46478279 23.6210341 5.65625 22.55419922 C3.81246626 21.47538237 1.95735326 20.4157885 0.09375 19.37158203 C-0.8240625 18.84806152 -1.741875 18.32454102 -2.6875 17.78515625 C-3.51636719 17.32117432 -4.34523438 16.85719238 -5.19921875 16.37915039 C-5.79347656 15.92403076 -6.38773437 15.46891113 -7 15 C-7 11.06025045 -5.52210525 9.17063907 -3.5 5.8125 C-2.8503125 4.72582031 -2.200625 3.63914063 -1.53125 2.51953125 C-1.0259375 1.68808594 -0.520625 0.85664063 0 0 Z " fill="#000000" transform="translate(79,129)"/>
<path d="M0 0 C18.15 0 36.3 0 55 0 C55 15.84 55 31.68 55 48 C40.22002012 48 26.74783838 43.33247243 15.8359375 32.99609375 C6.82549692 23.19963601 1.65295237 13.22361894 0 0 Z " fill="#7F7F7F" transform="translate(65,288)"/>
<path d="M0 0 C31.68 0 63.36 0 96 0 C96 5.28 96 10.56 96 16 C64.32 16 32.64 16 0 16 C0 10.72 0 5.44 0 0 Z " fill="#000000" transform="translate(368,232)"/>
<path d="M0 0 C31.68 0 63.36 0 96 0 C96 5.28 96 10.56 96 16 C64.32 16 32.64 16 0 16 C0 10.72 0 5.44 0 0 Z " fill="#000000" transform="translate(48,232)"/>
<path d="M0 0 C2.70271688 2.70271688 4.18342961 4.79492759 6.046875 8.06640625 C6.63750732 9.09725342 7.22813965 10.12810059 7.83666992 11.19018555 C8.46806885 12.30304932 9.09946777 13.41591309 9.75 14.5625 C10.75095194 16.31271979 11.75191169 18.06293516 12.75334167 19.81288147 C13.79806294 21.63975708 14.84076308 23.46777602 15.88330078 25.29589844 C19.29504648 31.27299817 22.74393547 37.22869926 26.1875 43.1875 C27.96279614 46.26258294 29.73794104 49.33758289 31.50146484 52.41943359 C32.4250303 54.00986807 33.36918582 55.58879582 34.34619141 57.14697266 C36.97644376 61.38753769 36.97644376 61.38753769 37.0859375 64.234375 C35.45016725 66.89397267 33.37149666 67.82268678 30.625 69.25 C29.64789063 69.77078125 28.67078125 70.2915625 27.6640625 70.828125 C25 72 25 72 22 72 C20.47581599 69.35808104 18.95163882 66.71615814 17.42749023 64.07421875 C16.08727059 61.75123713 14.74695558 59.42831082 13.40649414 57.10546875 C10.23195982 51.60411726 7.05811236 46.10237871 3.88926697 40.5977478 C2.88421933 38.85195174 1.87880822 37.10636549 0.87329102 35.36083984 C-0.38474962 33.17668202 -1.64211197 30.99213332 -2.89868164 28.80712891 C-6.16394848 23.14009198 -9.48299914 17.51884344 -12.93139648 11.9609375 C-14 10 -14 10 -14 8 C-9.38 5.36 -4.76 2.72 0 0 Z " fill="#000000" transform="translate(152,44)"/>
<path d="M0 0 C0.94921875 2.328125 0.94921875 2.328125 1.6875 5.25 C1.93886719 6.20390625 2.19023437 7.1578125 2.44921875 8.140625 C2.971856 10.8538907 3.0408002 13.2487357 3 16 C-3.77778223 17.88152167 -10.55908266 19.7499161 -17.34301758 21.60913086 C-19.65147128 22.24346424 -21.95909578 22.8808232 -24.26586914 23.52124023 C-27.57746617 24.44006073 -30.89187112 25.3480384 -34.20703125 26.25390625 C-35.75871758 26.68818687 -35.75871758 26.68818687 -37.3417511 27.13124084 C-38.78290535 27.5217588 -38.78290535 27.5217588 -40.25317383 27.92016602 C-41.09922684 28.15333023 -41.94527985 28.38649445 -42.81697083 28.62672424 C-45 29 -45 29 -48 28 C-48.94921875 25.671875 -48.94921875 25.671875 -49.6875 22.75 C-49.93886719 21.79609375 -50.19023437 20.8421875 -50.44921875 19.859375 C-50.971856 17.1461093 -51.0408002 14.7512643 -51 12 C-44.22221777 10.11847833 -37.44091734 8.2500839 -30.65698242 6.39086914 C-28.34852872 5.75653576 -26.04090422 5.1191768 -23.73413086 4.47875977 C-20.42253383 3.55993927 -17.10812888 2.6519616 -13.79296875 1.74609375 C-12.7585112 1.45657333 -11.72405365 1.16705292 -10.6582489 0.86875916 C-9.6974794 0.60841385 -8.7367099 0.34806854 -7.74682617 0.07983398 C-6.90077316 -0.15333023 -6.05472015 -0.38649445 -5.18302917 -0.62672424 C-3 -1 -3 -1 0 0 Z " fill="#000000" transform="translate(433,185)"/>
<path d="M0 0 C6.93 3.96 6.93 3.96 14 8 C13.12063998 12.39680009 12.35715206 14.49877642 10.15625 18.2109375 C9.57343262 19.202146 8.99061523 20.19335449 8.39013672 21.21459961 C7.7663916 22.25753174 7.14264648 23.30046387 6.5 24.375 C5.86723145 25.44177979 5.23446289 26.50855957 4.58251953 27.60766602 C3.31312163 29.74632201 2.04118622 31.88347409 0.76660156 34.01904297 C-0.77795739 36.62532611 -2.29238578 39.24495582 -3.7890625 41.87890625 C-4.19060547 42.5764502 -4.59214844 43.27399414 -5.00585938 43.99267578 C-5.73246264 45.25535502 -6.45045544 46.52304294 -7.15820312 47.79638672 C-8.48347183 50.06514581 -9.56404009 51.74247094 -11.8515625 53.09375 C-15.2280026 52.94641443 -17.40904866 51.32265464 -20.25 49.5625 C-21.32765625 48.90378906 -22.4053125 48.24507812 -23.515625 47.56640625 C-24.33546875 47.04949219 -25.1553125 46.53257813 -26 46 C-24.55273443 40.98487653 -22.37095753 36.92117989 -19.6875 32.5 C-18.79667368 31.01053705 -17.90606026 29.52094676 -17.015625 28.03125 C-16.53544922 27.23203125 -16.05527344 26.4328125 -15.56054688 25.609375 C-13.85511598 22.75774087 -12.16816513 19.89571303 -10.484375 17.03125 C-9.89567627 16.03029297 -9.30697754 15.02933594 -8.70043945 13.99804688 C-7.53448284 12.01522632 -6.36894851 10.03215738 -5.20385742 8.04882812 C-4.67123291 7.14583984 -4.1386084 6.24285156 -3.58984375 5.3125 C-3.11409912 4.50425781 -2.63835449 3.69601563 -2.14819336 2.86328125 C-1 1 -1 1 0 0 Z " fill="#000000" transform="translate(353,55)"/>
<path d="M0 0 C9.19685465 2.12235107 18.36647866 4.30669951 27.5 6.6875 C28.74583862 7.00883911 28.74583862 7.00883911 30.0168457 7.33666992 C35.88016735 8.88016735 35.88016735 8.88016735 37 10 C36.51601284 15.51745357 35.4315622 20.6555011 34 26 C25.93031407 25.34485797 18.27666743 23.06612985 10.5 20.9375 C9.09127935 20.55614707 7.68242615 20.17528343 6.2734375 19.79492188 C2.84712175 18.86981662 -0.57623778 17.93472115 -4 17 C-2.68 11.39 -1.36 5.78 0 0 Z " fill="#000000" transform="translate(91,187)"/>
<path d="M0 0 C5.28 0 10.56 0 16 0 C16 13.2 16 26.4 16 40 C10.72 40 5.44 40 0 40 C0 26.8 0 13.6 0 0 Z " fill="#000000" transform="translate(248,16)"/>
<path d="M0 0 C1.43258608 2.19255552 2.60482274 4.23036862 3.75 6.5625 C4.06582031 7.17802734 4.38164062 7.79355469 4.70703125 8.42773438 C5.48361889 9.94561021 6.24345561 11.47203534 7 13 C2.47833622 16.11064813 -2.08738669 19.14324694 -6.8125 21.9375 C-7.87404297 22.56978516 -7.87404297 22.56978516 -8.95703125 23.21484375 C-11 24 -11 24 -13.05859375 23.96484375 C-15.96593014 22.51995021 -16.77192041 20.46918345 -18.25 17.625 C-18.77078125 16.64789063 -19.2915625 15.67078125 -19.828125 14.6640625 C-21 12 -21 12 -21 9 C-18.50997367 6.88031027 -15.57927075 5.37855584 -12.75 3.75 C-11.97269531 3.27820313 -11.19539063 2.80640625 -10.39453125 2.3203125 C-9.64042969 1.87945312 -8.88632812 1.43859375 -8.109375 0.984375 C-7.41811523 0.57928711 -6.72685547 0.17419922 -6.01464844 -0.24316406 C-3.52716656 -1.17762769 -2.42361126 -1.05080315 0 0 Z " fill="#000000" transform="translate(337,186)"/>
<path d="M0 0 C0.83752161 2.95716407 1.66930031 5.915913 2.5 8.875 C2.73847656 9.71675781 2.97695312 10.55851562 3.22265625 11.42578125 C3.44824219 12.23144531 3.67382812 13.03710938 3.90625 13.8671875 C4.11572266 14.61081543 4.32519531 15.35444336 4.54101562 16.12060547 C5 18 5 18 5 20 C-0.61 21.32 -6.22 22.64 -12 24 C-13.65 17.73 -15.3 11.46 -17 5 C-3.66666667 0 -3.66666667 0 0 0 Z " fill="#000000" transform="translate(212,41)"/>
<path d="M0 0 C0 5.28 0 10.56 0 16 C-10.08839779 16.60773481 -10.08839779 16.60773481 -14.1875 13.875 C-16.34663968 10.45015775 -16.82630866 8.96628159 -16 5 C-11.92038459 -1.4711141 -6.93643086 -0.41785728 0 0 Z " fill="#AC762B" transform="translate(208,136)"/>
</svg>
